<svg width="25" height="175" viewBox="0 0 25 175" fill="none" xmlns="http://www.w3.org/2000/svg">
<rect width="25" height="175" fill="#18003C"/>
<g id="Footer" clip-path="url(#clip0_303_747)">
<rect width="1600" height="1787" transform="translate(-1348 -98)" fill="#F9F9FB"/>
<g id="Footer 1">
<g id="Top">
<g id="Social Media">
<g id="Facebook">
<circle id="Oval" cx="12.4111" cy="12.4111" r="12.4111" fill="#9B9B9B"/>
<path id="Shape" d="M15.5312 12.897H13.3166V21.0103H9.96127V12.897H8.36548V10.0457H9.96127V8.20056C9.96127 6.88109 10.588 4.81494 13.3465 4.81494L15.8319 4.82534V7.59304H14.0285C13.7327 7.59304 13.3168 7.74083 13.3168 8.37025V10.0483H15.8243L15.5312 12.897Z" fill="white"/>
</g>
<g id="Twitter">
<circle id="Oval_2" cx="12.4111" cy="62.4111" r="12.4111" fill="#9B9B9B"/>
<path id="Shape_2" d="M20.7097 58.8912C20.1779 59.127 19.6058 59.2865 19.0058 59.3577C19.6184 58.9907 20.0885 58.41 20.3104 57.7168C19.7372 58.0569 19.102 58.3035 18.4265 58.4365C17.8854 57.8602 17.1144 57.5 16.2606 57.5C14.6226 57.5 13.294 58.8285 13.294 60.4666C13.294 60.6991 13.3204 60.9254 13.3712 61.1427C10.9058 61.019 8.71969 59.8381 7.25642 58.0427C7.00111 58.4808 6.85465 58.9907 6.85465 59.5343C6.85465 60.5633 7.37876 61.4717 8.17434 62.0035C7.68827 61.9883 7.23053 61.8549 6.83075 61.6321C6.83053 61.6447 6.83053 61.6573 6.83053 61.6697C6.83053 63.1071 7.85354 64.306 9.2104 64.5783C8.96173 64.6465 8.69912 64.6825 8.42898 64.6825C8.23739 64.6825 8.05177 64.6642 7.8708 64.6296C8.24823 65.808 9.34358 66.6657 10.642 66.6898C9.62655 67.4856 8.34757 67.9597 6.9573 67.9597C6.71836 67.9597 6.48164 67.9458 6.25 67.9181C7.56217 68.7602 9.1219 69.2511 10.7971 69.2511C16.2538 69.2511 19.2378 64.7308 19.2378 60.8102C19.2378 60.6816 19.235 60.5535 19.2292 60.4265C19.8093 60.0084 20.3122 59.4861 20.7097 58.8912Z" fill="white"/>
</g>
<g id="Instagram">
<path id="Shape_3" fill-rule="evenodd" clip-rule="evenodd" d="M16.182 106.633H8.75084C7.56473 106.633 6.59973 107.598 6.59973 108.784V116.216C6.59973 117.402 7.56473 118.367 8.75084 118.367H16.182C17.3681 118.367 18.3333 117.402 18.3333 116.216V108.784C18.3333 107.598 17.3683 106.633 16.182 106.633ZM12.4664 116.363C10.3367 116.363 8.6039 114.63 8.6039 112.5C8.6039 110.37 10.3367 108.637 12.4664 108.637C14.5964 108.637 16.3292 110.37 16.3292 112.5C16.3292 114.63 14.5961 116.363 12.4664 116.363ZM15.5392 108.522C15.5392 109.026 15.9492 109.436 16.4533 109.436C16.9572 109.436 17.3672 109.026 17.3672 108.522C17.3672 108.018 16.9572 107.608 16.4533 107.608C15.9492 107.608 15.5392 108.018 15.5392 108.522Z" fill="#9B9B9B"/>
<path id="Shape_4" d="M12.4664 110.27C11.237 110.27 10.2358 111.27 10.2358 112.5C10.2358 113.73 11.237 114.731 12.4664 114.731C13.6964 114.731 14.6967 113.73 14.6967 112.5C14.6967 111.271 13.6961 110.27 12.4664 110.27Z" fill="#9B9B9B"/>
<path id="Shape_5" fill-rule="evenodd" clip-rule="evenodd" d="M0 112.466C0 105.582 5.58167 100 12.4664 100C19.3511 100 24.9328 105.582 24.9328 112.466C24.9328 119.351 19.3511 124.933 12.4664 124.933C5.58167 124.933 0 119.351 0 112.466ZM16.1819 119.999C18.2683 119.999 19.9653 118.302 19.9653 116.216V108.784C19.9653 106.698 18.2683 105.001 16.1819 105.001H8.75083C6.66472 105.001 4.9675 106.698 4.9675 108.784V116.216C4.9675 118.302 6.66472 119.999 8.75083 119.999H16.1819Z" fill="#9B9B9B"/>
</g>
<g id="Pinterest">
<circle id="Oval_3" cx="12.4113" cy="162.412" r="12.4111" fill="#9B9B9B"/>
<path id="Shape_6" d="M13.4131 166.62C12.4748 166.547 12.0805 166.082 11.3447 165.635C10.9403 167.757 10.446 169.791 8.9821 170.854C8.52966 167.647 9.64537 165.238 10.1635 162.681C9.28033 161.195 10.2697 158.202 12.1325 158.939C14.4252 159.846 10.1476 164.468 13.0193 165.045C16.0173 165.647 17.2412 159.843 15.3819 157.955C12.6956 155.229 7.56263 157.893 8.19382 161.795C8.34758 162.749 9.33342 163.039 8.58763 164.355C6.86838 163.974 6.35555 162.618 6.42148 160.81C6.52789 157.851 9.08033 155.779 11.6405 155.493C14.8783 155.13 17.9173 156.682 18.3367 159.727C18.8086 163.165 16.875 166.887 13.4131 166.62Z" fill="white"/>
</g>
</g>
</g>
</g>
</g>
<defs>
<clipPath id="clip0_303_747">
<rect width="1600" height="1787" fill="white" transform="translate(-1348 -98)"/>
</clipPath>
</defs>
</svg>
